<?xml version="1.0" standalone="no"?>
<!DOCTYPE svg PUBLIC "-//W3C//DTD SVG 20010904//EN"
 "http://www.w3.org/TR/2001/REC-SVG-20010904/DTD/svg10.dtd">
<svg version="1.0" xmlns="http://www.w3.org/2000/svg"
 width="500.000000pt" height="500.000000pt" viewBox="0 0 500.000000 500.000000"
 preserveAspectRatio="xMidYMid meet">

<g transform="translate(0.000000,500.000000) scale(0.100000,-0.100000)"
fill="#000000" stroke="none">
<path d="M1516 4098 c-59 -141 -476 -1179 -476 -1183 0 -3 66 -5 148 -5 l147
0 44 120 44 120 233 0 232 0 16 -42 c9 -24 28 -77 44 -118 l28 -75 147 -3 c81
-1 147 1 147 5 0 5 -109 278 -243 608 l-242 600 -128 3 -128 3 -13 -33z m208
-523 c36 -93 64 -170 62 -172 -2 -2 -62 -2 -134 -1 l-130 3 66 172 c36 95 67
172 68 170 2 -2 33 -79 68 -172z"/>
<path d="M2320 3520 l0 -610 350 0 350 0 0 120 0 120 -210 0 -210 0 0 490 0
490 -140 0 -140 0 0 -610z"/>
<path d="M3160 3520 l0 -610 345 0 345 0 0 120 0 120 -207 2 -208 3 -3 123 -3
122 201 0 200 0 0 120 0 120 -200 0 -200 0 0 120 0 120 210 0 210 0 0 125 0
125 -345 0 -345 0 0 -610z"/>
<path d="M427 2503 c-4 -3 -7 -21 -7 -40 l0 -33 2075 0 2075 0 0 40 0 40
-2068 0 c-1138 0 -2072 -3 -2075 -7z"/>
<path d="M2053 2048 c-8 -10 -459 -1120 -509 -1251 -6 -16 7 -17 173 -17 l179
0 43 120 43 120 217 0 216 0 24 -67 c13 -38 32 -92 43 -120 l19 -53 545 0 544
0 0 150 0 150 -210 0 -210 0 0 490 0 490 -165 0 -165 0 0 -612 -1 -613 -89
220 c-50 121 -161 396 -247 610 l-158 390 -141 3 c-105 2 -144 -1 -151 -10z
m260 -60 c3 -7 105 -260 227 -563 123 -302 225 -558 228 -568 4 -16 -4 -17
-113 -15 l-117 3 -18 45 c-9 25 -29 78 -44 118 l-28 72 -251 -2 -251 -3 -44
-117 -45 -118 -118 0 -119 0 9 23 c12 30 429 1063 447 1105 l13 32 109 0 c79
0 111 -4 115 -12z m807 -478 l0 -490 205 0 205 0 0 -90 0 -90 -320 0 -320 0 0
580 0 580 115 0 115 0 0 -490z"/>
<path d="M2170 1658 c-6 -13 -41 -104 -79 -203 l-69 -180 171 -3 c93 -1 172 0
175 2 4 4 -19 67 -120 329 -23 59 -34 77 -49 77 -11 0 -24 -10 -29 -22z m79
-211 c22 -59 41 -110 41 -112 0 -3 -40 -5 -90 -5 -49 0 -90 3 -90 8 0 19 86
230 91 224 4 -4 25 -56 48 -115z"/>
<path d="M3675 2048 c-3 -7 -4 -294 -3 -638 l3 -625 375 0 375 0 3 148 3 147
-211 0 -210 0 0 95 0 95 200 0 200 0 0 150 0 150 -200 0 -200 0 0 90 0 90 208
2 207 3 0 150 0 150 -373 3 c-293 2 -374 0 -377 -10z m695 -143 l0 -95 -210 0
-211 0 3 -147 3 -148 198 -3 197 -2 0 -90 0 -90 -197 -2 -198 -3 0 -150 0
-150 208 -3 207 -2 0 -90 0 -90 -320 0 -320 0 0 580 0 580 320 0 320 0 0 -95z"/>
<path d="M590 1414 l0 -636 253 4 c241 4 256 6 334 32 144 47 283 157 354 281
103 177 110 424 19 610 -55 113 -165 221 -285 280 -119 59 -161 65 -432 65
l-243 0 0 -636z m579 553 c255 -91 410 -329 387 -598 -3 -42 -12 -96 -20 -120
-52 -174 -192 -319 -366 -380 -59 -21 -87 -24 -292 -27 l-228 -4 0 582 0 582
223 -4 c209 -4 226 -6 296 -31z"/>
<path d="M870 1420 l0 -393 83 5 c107 6 188 41 253 110 190 204 117 554 -135
643 -20 7 -73 16 -119 20 l-82 7 0 -392z m217 296 c126 -64 194 -219 163 -371
-15 -75 -31 -106 -83 -162 -47 -51 -95 -78 -152 -88 -22 -3 -50 -8 -62 -11
l-23 -4 0 336 0 337 54 -6 c29 -3 76 -17 103 -31z"/>
</g>
</svg>
