<svg xmlns="http://www.w3.org/2000/svg" xmlns:svgjs="http://svgjs.com/svgjs" xmlns:xlink="http://www.w3.org/1999/xlink" width="288" height="288"><svg xmlns="http://www.w3.org/2000/svg" width="288" height="288" viewBox="0 0 32 32"><path fill="none" stroke="#f1f1f1" stroke-linecap="round" stroke-linejoin="round" stroke-miterlimit="10" stroke-width="2" d="M15.323,28.72L3.28,16.677c-0.374-0.374-0.374-0.98,0-1.353L15.323,3.28c0.374-0.374,0.98-0.374,1.353,0L28.72,15.323c0.374,0.374,0.374,0.98,0,1.353L16.677,28.72C16.303,29.093,15.697,29.093,15.323,28.72z" class="colorStroke000 svgStroke"/><path fill="#f1f1f1" d="M16 20A2 2 0 1 0 16 24 2 2 0 1 0 16 20zM22 14A2 2 0 1 0 22 18 2 2 0 1 0 22 14zM16 8A2 2 0 1 0 16 12 2 2 0 1 0 16 8z" class="color000 svgShape"/><path fill="none" stroke="#f1f1f1" stroke-linecap="round" stroke-linejoin="round" stroke-miterlimit="10" stroke-width="2" d="M16 22L16 10M22 16L12.302 6.302" class="colorStroke000 svgStroke"/></svg></svg>